# xmcd CD database file
# Copyright (C) 1993-1998 Ti Kan
#
# Track frame offsets:
#	212
#	14037
#	28745
#	42527
#	55662
#	67892
#	86312
#	99795
#	113000
#	125682
#	144417
#	163852
#	178415
#	191770
#
# Disc length: 2750 seconds
#
# Revision: 1
# Processed by: cddbd v1.4b41PL1 Copyright (c) Steve Scherf et al.
# Submitted via: NotifyCDPlayer(CDDB) 1.51.3
#
DISCID=c00abc0e
DTITLE=Sugar Ray and The Blue Tones - Knockout
DYEAR=1900
DGENRE=
TTITLE0=Sally Sue Brown
TTITLE1=I'm Your Professor
TTITLE2=Talk To Me
TTITLE3=Lucy Mae Blues
TTITLE4=Mouth On Fire
TTITLE5=I'mTortured
TTITLE6=Hope Valley
TTITLE7=Radiates That Charm
TTITLE8=I'm Not Ashamed
TTITLE9=He's Gone Away
TTITLE10=Bite The Dust
TTITLE11=I Could Have (Loved You)
TTITLE12=What Can It Be
TTITLE13=Country Boy
EXTD=
EXTT0=
EXTT1=
EXTT2=
EXTT3=
EXTT4=
EXTT5=
EXTT6=
EXTT7=
EXTT8=
EXTT9=
EXTT10=
EXTT11=
EXTT12=
EXTT13=
PLAYORDER=
